<svg id="Layer_1" enable-background="new 0 0 256 256" height="512" viewBox="0 0 256 256" width="512" xmlns="http://www.w3.org/2000/svg"><g><g><path d="m103.499 156.755v-24.303h49.224v24.303h44.444c17.216.022 31.155 14.159 31.133 31.375v63.87h-200.6v-64.126c.022-17.216 14.078-31.155 31.295-31.133z" fill="#f4efed"/></g><g><g><path d="m197.167 156.755h-10.935c17.216.022 31.155 14.145 31.133 31.362v63.883h10.935v-63.869c.022-17.217-13.916-31.354-31.133-31.376z" fill="#d6d1cf"/></g></g><g><g><path d="m58.994 156.741 10.935.014c-17.216-.022-31.272 13.917-31.294 31.133v64.112h-10.935v-64.126c.022-17.216 14.078-31.155 31.294-31.133z" fill="#fff"/></g></g><g><path d="m228.3 254h-200.6c-1.104 0-2-.895-2-2v-64.126c.011-8.86 3.488-17.186 9.79-23.449 6.284-6.246 14.616-9.684 23.464-9.684h.044l42.502.014v-22.302c0-1.105.895-2 2-2h49.224c1.104 0 2 .895 2 2v22.303h42.444c8.856.011 17.185 3.503 23.452 9.833 6.254 6.315 9.692 14.677 9.681 23.545v63.866c-.001 1.105-.897 2-2.001 2zm-198.6-4h196.6v-61.869c.01-7.808-3.017-15.168-8.522-20.729-5.513-5.566-12.833-8.637-20.613-8.647h-44.441c-1.105 0-2-.896-2-2v-22.303h-45.224v22.303c0 .531-.211 1.04-.586 1.415s-.884.585-1.414.585h-.001l-44.505-.014c-.013 0-.026 0-.039 0-7.787 0-15.116 3.025-20.646 8.521-5.542 5.508-8.6 12.829-8.609 20.615z" fill="#690589"/></g><g><path d="m38.635 228.349c-1.104 0-2-.896-2-2v-12c0-1.105.896-2 2-2s2 .895 2 2v12c0 1.105-.895 2-2 2z" fill="#690589"/></g><g><path d="m180.76 156.755h-28.037v-24.302h-49.224v24.302l-28.26-.009v54.585h105.521z" fill="#ff9f70"/></g><g><path d="m180.761 213.331h-105.522c-1.104 0-2-.895-2-2v-54.584c0-.531.211-1.04.586-1.415s.884-.585 1.414-.585l26.259.008v-22.302c0-1.105.895-2 2-2h49.224c1.104 0 2 .895 2 2v22.303h26.038c1.105 0 2 .895 2 2v54.575c.001 1.104-.895 2-1.999 2zm-103.522-4h101.521v-50.575h-26.038c-1.105 0-2-.896-2-2v-22.303h-45.224v22.303c0 .531-.211 1.04-.586 1.415s-.884.585-1.414.585h-.001l-26.259-.008v50.583z" fill="#690589"/></g><g><path d="m79.255 68.434h-3.483c-9.005 0-16.305 7.3-16.305 16.305s7.3 16.305 16.305 16.305h3.483z" fill="#708dc8"/></g><g><path d="m180.32 68.434h-3.484v32.61h3.484c9.005 0 16.305-7.3 16.305-16.305s-7.301-16.305-16.305-16.305z" fill="#34518c"/></g><g><path d="m128.045 151.32c-26.947 0-48.791-22.128-48.791-49.424v-34.217c0-27.296 21.844-49.424 48.791-49.424 26.946 0 48.791 22.128 48.791 49.424v34.217c0 27.296-21.844 49.424-48.791 49.424z" fill="#ff9f70"/></g><g><path d="m128.045 18.255c-1.876 0-3.723.118-5.544.327 24.334 2.79 43.246 23.701 43.246 49.097v34.217c0 25.396-18.912 46.307-43.246 49.097 1.821.209 3.668.327 5.544.327 26.946 0 48.791-22.128 48.791-49.424v-34.217c0-27.297-21.844-49.424-48.791-49.424z" fill="#e18152"/></g><g><path d="m128.045 18.255c1.876 0 3.724.118 5.544.327-24.334 2.79-43.246 23.701-43.246 49.097v34.217c0 25.396 18.912 46.307 43.246 49.097-1.821.209-3.669.327-5.544.327-26.947 0-48.791-22.128-48.791-49.424v-34.217c.001-27.297 21.845-49.424 48.791-49.424z" fill="#ffbd8e"/></g><g><path d="m128.045 153.32c-28.006 0-50.79-23.069-50.79-51.424v-34.217c0-28.355 22.785-51.424 50.79-51.424 28.006 0 50.79 23.069 50.79 51.424v34.217c.001 28.355-22.783 51.424-50.79 51.424zm0-133.066c-25.8 0-46.79 21.274-46.79 47.424v34.217c0 26.15 20.99 47.424 46.79 47.424s46.79-21.274 46.79-47.424v-34.216c.001-26.15-20.989-47.425-46.79-47.425z" fill="#690589"/></g><g><path d="m79.255 103.044h-3.483c-10.094 0-18.305-8.212-18.305-18.305 0-10.094 8.211-18.305 18.305-18.305h3.483c1.104 0 2 .896 2 2v32.61c0 1.104-.896 2-2 2zm-3.484-32.61c-7.888 0-14.305 6.418-14.305 14.305s6.417 14.305 14.305 14.305h1.483v-28.61z" fill="#690589"/></g><g><path d="m180.319 103.044h-3.483c-1.104 0-2-.896-2-2v-32.61c0-1.104.896-2 2-2h3.483c10.093 0 18.305 8.211 18.305 18.305 0 10.093-8.212 18.305-18.305 18.305zm-1.483-4h1.483c7.888 0 14.305-6.417 14.305-14.305s-6.417-14.305-14.305-14.305h-1.483z" fill="#690589"/></g><g><path d="m144.134 4h-32.268c-24.173 0-43.769 19.596-43.769 43.769v68.208c0 3.056 2.477 5.534 5.534 5.534h.091c3.056 0 5.534-2.478 5.534-5.534v-31.13c0-15.108 12.247-27.356 27.356-27.356h42.87c15.108 0 27.356 12.248 27.356 27.356v31.13c0 3.056 2.477 5.534 5.534 5.534 3.056 0 5.533-2.478 5.533-5.534v-68.208c-.002-24.173-19.598-43.769-43.771-43.769z" fill="#526faa"/></g><g><g><path d="m144.134 4h-10c24.173 0 43.769 19.596 43.769 43.769v68.208c0 .845-.195 1.642-.533 2.359.886 1.875 2.789 3.175 5 3.175 3.056 0 5.533-2.478 5.533-5.534v-68.208c0-24.173-19.596-43.769-43.769-43.769z" fill="#34518c"/></g></g><g><g><path d="m111.866 4h10c-24.173 0-43.769 19.596-43.769 43.769v68.208c0 .845.195 1.642.534 2.359-.886 1.875-2.789 3.175-5 3.175-3.056 0-5.534-2.478-5.534-5.534v-68.208c0-24.173 19.596-43.769 43.769-43.769z" fill="#708dc8"/></g></g><g><path d="m178.753 24.94c.892 0 1.774-.046 2.644-.132-6.211-10.057-16.374-17.413-28.327-19.892 2.882 11.503 13.286 20.024 25.683 20.024z" fill="#fcc24c"/></g><g><path d="m74.603 24.808c.87.086 1.751.132 2.644.132 12.397 0 22.801-8.521 25.684-20.024-11.954 2.479-22.117 9.835-28.328 19.892z" fill="#fcc24c"/></g><g><path d="m182.369 123.51c-4.154 0-7.533-3.379-7.533-7.534v-31.13c0-13.981-11.374-25.355-25.355-25.355h-42.87c-13.981 0-25.355 11.375-25.355 25.355v31.13c0 4.154-3.379 7.534-7.534 7.534-4.245 0-7.624-3.379-7.624-7.534v-68.207c-.001-25.237 20.53-45.769 45.768-45.769h32.268c25.237 0 45.769 20.532 45.769 45.769v68.208c0 4.154-3.38 7.533-7.534 7.533zm-75.759-68.019h42.87c16.187 0 29.355 13.169 29.355 29.355v31.13c0 1.948 1.585 3.534 3.533 3.534 1.949 0 3.534-1.585 3.534-3.534v-68.207c.001-23.032-18.736-41.769-41.768-41.769h-32.268c-23.032 0-41.769 18.737-41.769 41.769v68.208c0 1.948 1.585 3.534 3.534 3.534 2.039 0 3.624-1.585 3.624-3.534v-31.13c0-16.187 13.169-29.356 29.355-29.356z" fill="#690589"/></g><g><path d="m178.753 26.94c-13.088 0-24.447-8.857-27.624-21.538-.167-.668.021-1.374.498-1.871.475-.497 1.174-.714 1.849-.574 12.229 2.537 23.025 10.118 29.622 20.8.363.587.397 1.319.092 1.938-.306.618-.908 1.035-1.595 1.104-.946.093-1.902.141-2.842.141zm-22.66-19.199c3.579 8.78 11.973 14.768 21.607 15.176-5.381-7.246-13.003-12.599-21.607-15.176z" fill="#690589"/></g><g><path d="m77.247 26.94c-.939 0-1.896-.048-2.841-.142-.687-.068-1.289-.485-1.595-1.104s-.271-1.351.091-1.938c6.596-10.682 17.393-18.263 29.622-20.8.674-.14 1.373.077 1.849.574.477.496.665 1.203.497 1.871-3.177 12.682-14.536 21.539-27.623 21.539zm22.66-19.198c-8.605 2.577-16.227 7.93-21.607 15.176 9.634-.409 18.028-6.396 21.607-15.176z" fill="#690589"/></g><g><path d="m229.793 144.537h-47.625c-6.74 0-12.204 5.464-12.204 12.204v14.172c0 15.108-12.247 27.356-27.356 27.356h-29.216c-15.108 0-27.356-12.247-27.356-27.356v-14.172c0-6.74-5.464-12.204-12.204-12.204h-47.625c-6.74 0-12.204 5.464-12.204 12.204v.028c0 6.74 5.464 12.204 12.204 12.204h.086c22.165 0 40.133 17.968 40.133 40.133v42.894h123.234v-42.893c0-22.165 17.968-40.133 40.133-40.133 6.74 0 12.204-5.464 12.204-12.204v-.028c0-6.741-5.464-12.205-12.204-12.205z" fill="#f4efed"/></g><g><path d="m189.66 254h-123.234c-1.104 0-2-.895-2-2v-42.893c0-21.027-17.106-38.133-38.133-38.133-7.918 0-14.29-6.372-14.29-14.204 0-7.86 6.372-14.232 14.204-14.232h47.626c7.832 0 14.204 6.372 14.204 14.204v14.172c0 13.981 11.374 25.355 25.355 25.355h29.217c13.981 0 25.355-11.375 25.355-25.355v-14.172c0-7.832 6.372-14.204 14.204-14.204h47.625c7.832 0 14.204 6.372 14.204 14.204 0 7.86-6.372 14.232-14.204 14.232-21.026 0-38.133 17.106-38.133 38.133v42.893c0 1.105-.895 2-2 2zm-121.234-4h119.234v-40.893c0-23.232 18.9-42.133 42.133-42.133 5.627 0 10.204-4.578 10.204-10.204 0-5.655-4.577-10.232-10.204-10.232h-47.625c-5.627 0-10.204 4.578-10.204 10.204v14.172c0 16.186-13.169 29.355-29.355 29.355h-29.217c-16.187 0-29.355-13.169-29.355-29.355v-14.172c0-5.626-4.578-10.204-10.204-10.204h-47.627c-5.626 0-10.204 4.578-10.204 10.204 0 5.655 4.578 10.232 10.204 10.232 23.318 0 42.219 18.901 42.219 42.133v40.893z" fill="#690589"/></g><g><path d="m66.426 218.223h123.234v33.777h-123.234z" fill="#526faa"/></g><g><path d="m189.66 254h-123.234c-1.104 0-2-.895-2-2v-33.777c0-1.105.896-2 2-2h123.234c1.104 0 2 .895 2 2v33.777c0 1.105-.895 2-2 2zm-121.234-4h119.234v-29.777h-119.234z" fill="#690589"/></g></g></svg>